<mxfile host="app.diagrams.net" modified="2024-08-03T07:11:48.665Z" agent="Mozilla/5.0 (Windows NT 10.0; Win64; x64) AppleWebKit/537.36 (KHTML, like Gecko) Chrome/127.0.0.0 Safari/537.36" etag="koWJkd34ySIQIhMfh_j1" version="24.4.13" type="device">
  <diagram name="Page-1" id="kJ2xqM4SIBbB31kYpJTl">
    <mxGraphModel dx="1276" dy="548" grid="1" gridSize="10" guides="1" tooltips="1" connect="1" arrows="1" fold="1" page="1" pageScale="1" pageWidth="1169" pageHeight="827" math="0" shadow="0">
      <root>
        <mxCell id="0" />
        <mxCell id="1" parent="0" />
        <mxCell id="H6stgWZFqscWRAf2NZui-47" value="" style="endArrow=classic;html=1;rounded=0;" edge="1" parent="1">
          <mxGeometry width="50" height="50" relative="1" as="geometry">
            <mxPoint x="290" y="440" as="sourcePoint" />
            <mxPoint x="290" y="201" as="targetPoint" />
          </mxGeometry>
        </mxCell>
        <mxCell id="H6stgWZFqscWRAf2NZui-48" value="" style="endArrow=classic;html=1;rounded=0;" edge="1" parent="1">
          <mxGeometry width="50" height="50" relative="1" as="geometry">
            <mxPoint x="290" y="440" as="sourcePoint" />
            <mxPoint x="650" y="440" as="targetPoint" />
          </mxGeometry>
        </mxCell>
        <mxCell id="H6stgWZFqscWRAf2NZui-49" value="High" style="text;html=1;align=center;verticalAlign=middle;resizable=0;points=[];autosize=1;strokeColor=none;fillColor=none;" vertex="1" parent="1">
          <mxGeometry x="240" y="190" width="50" height="30" as="geometry" />
        </mxCell>
        <mxCell id="H6stgWZFqscWRAf2NZui-50" value="High" style="text;html=1;align=center;verticalAlign=middle;resizable=0;points=[];autosize=1;strokeColor=none;fillColor=none;" vertex="1" parent="1">
          <mxGeometry x="620" y="440" width="50" height="30" as="geometry" />
        </mxCell>
        <mxCell id="H6stgWZFqscWRAf2NZui-51" value="Low" style="text;html=1;align=center;verticalAlign=middle;resizable=0;points=[];autosize=1;strokeColor=none;fillColor=none;" vertex="1" parent="1">
          <mxGeometry x="245" y="418" width="50" height="30" as="geometry" />
        </mxCell>
        <mxCell id="H6stgWZFqscWRAf2NZui-52" value="Low" style="text;html=1;align=center;verticalAlign=middle;resizable=0;points=[];autosize=1;strokeColor=none;fillColor=none;" vertex="1" parent="1">
          <mxGeometry x="280" y="440" width="50" height="30" as="geometry" />
        </mxCell>
        <mxCell id="H6stgWZFqscWRAf2NZui-53" value="&lt;b&gt;Influence&lt;/b&gt;" style="text;html=1;align=center;verticalAlign=middle;resizable=0;points=[];autosize=1;strokeColor=none;fillColor=none;rotation=-89;" vertex="1" parent="1">
          <mxGeometry x="241" y="304" width="80" height="30" as="geometry" />
        </mxCell>
        <mxCell id="H6stgWZFqscWRAf2NZui-54" value="&lt;b&gt;Interest&lt;/b&gt;" style="text;html=1;align=center;verticalAlign=middle;resizable=0;points=[];autosize=1;strokeColor=none;fillColor=none;" vertex="1" parent="1">
          <mxGeometry x="400" y="440" width="70" height="30" as="geometry" />
        </mxCell>
        <mxCell id="H6stgWZFqscWRAf2NZui-56" value="&lt;b&gt;&lt;font style=&quot;font-size: 12px;&quot;&gt;Keep satisfied&lt;/font&gt;&lt;/b&gt;" style="text;html=1;align=center;verticalAlign=middle;resizable=0;points=[];autosize=1;strokeColor=none;fillColor=none;" vertex="1" parent="1">
          <mxGeometry x="301" y="192" width="100" height="30" as="geometry" />
        </mxCell>
        <mxCell id="H6stgWZFqscWRAf2NZui-57" value="&lt;b&gt;&lt;font style=&quot;font-size: 12px;&quot;&gt;Manage closely&lt;/font&gt;&lt;/b&gt;" style="text;html=1;align=center;verticalAlign=middle;resizable=0;points=[];autosize=1;strokeColor=none;fillColor=none;" vertex="1" parent="1">
          <mxGeometry x="430" y="192" width="110" height="30" as="geometry" />
        </mxCell>
        <mxCell id="H6stgWZFqscWRAf2NZui-58" value="&lt;div&gt;IT Staff&lt;/div&gt;&lt;div&gt;Shareholders&lt;/div&gt;&lt;div&gt;Regulators&lt;/div&gt;" style="text;html=1;align=left;verticalAlign=middle;resizable=0;points=[];autosize=1;strokeColor=none;fillColor=none;" vertex="1" parent="1">
          <mxGeometry x="306" y="220" width="90" height="60" as="geometry" />
        </mxCell>
        <mxCell id="H6stgWZFqscWRAf2NZui-59" value="Site Manager&lt;div&gt;Operation Manager&lt;/div&gt;&lt;div&gt;Customer Service Manager&lt;/div&gt;&lt;div&gt;Employees&amp;nbsp;&lt;/div&gt;&lt;div&gt;(Customer Service Representative)&lt;/div&gt;&lt;div&gt;Marketing and Sales Team&lt;/div&gt;" style="text;html=1;align=left;verticalAlign=middle;resizable=0;points=[];autosize=1;strokeColor=none;fillColor=none;" vertex="1" parent="1">
          <mxGeometry x="440" y="220" width="210" height="100" as="geometry" />
        </mxCell>
        <mxCell id="H6stgWZFqscWRAf2NZui-60" value="" style="endArrow=none;dashed=1;html=1;rounded=0;" edge="1" parent="1" source="H6stgWZFqscWRAf2NZui-53">
          <mxGeometry width="50" height="50" relative="1" as="geometry">
            <mxPoint x="320" y="320" as="sourcePoint" />
            <mxPoint x="640" y="320" as="targetPoint" />
          </mxGeometry>
        </mxCell>
        <mxCell id="H6stgWZFqscWRAf2NZui-61" value="" style="endArrow=none;dashed=1;html=1;rounded=0;exitX=0.303;exitY=0.04;exitDx=0;exitDy=0;exitPerimeter=0;" edge="1" parent="1" source="H6stgWZFqscWRAf2NZui-54">
          <mxGeometry width="50" height="50" relative="1" as="geometry">
            <mxPoint x="560" y="380" as="sourcePoint" />
            <mxPoint x="420" y="200" as="targetPoint" />
          </mxGeometry>
        </mxCell>
        <mxCell id="H6stgWZFqscWRAf2NZui-62" value="&lt;b&gt;Monitor&lt;/b&gt;&lt;div&gt;&lt;br&gt;&lt;/div&gt;" style="text;html=1;align=center;verticalAlign=middle;resizable=0;points=[];autosize=1;strokeColor=none;fillColor=none;" vertex="1" parent="1">
          <mxGeometry x="301" y="313" width="70" height="40" as="geometry" />
        </mxCell>
        <mxCell id="H6stgWZFqscWRAf2NZui-63" value="&lt;b&gt;Keep Informed&lt;/b&gt;" style="text;html=1;align=center;verticalAlign=middle;resizable=0;points=[];autosize=1;strokeColor=none;fillColor=none;" vertex="1" parent="1">
          <mxGeometry x="430" y="313" width="110" height="30" as="geometry" />
        </mxCell>
        <mxCell id="H6stgWZFqscWRAf2NZui-66" value="Customers" style="text;html=1;align=center;verticalAlign=middle;resizable=0;points=[];autosize=1;strokeColor=none;fillColor=none;" vertex="1" parent="1">
          <mxGeometry x="301" y="334" width="80" height="30" as="geometry" />
        </mxCell>
        <mxCell id="H6stgWZFqscWRAf2NZui-67" value="Customers" style="text;html=1;align=center;verticalAlign=middle;resizable=0;points=[];autosize=1;strokeColor=none;fillColor=none;" vertex="1" parent="1">
          <mxGeometry x="430" y="334" width="80" height="30" as="geometry" />
        </mxCell>
      </root>
    </mxGraphModel>
  </diagram>
</mxfile>
